<svg xmlns="http://www.w3.org/2000/svg" viewBox="0 0 1785.42 502.86"><defs><style>.cls-1{fill:#fff;}</style></defs><g id="Capa_2" data-name="Capa 2"><g id="Capa_1-2" data-name="Capa 1"><path class="cls-1" d="M1,265.39H17.21a277.54,277.54,0,0,0,15,25.56,231.11,231.11,0,0,0,48.7,53.29,187.35,187.35,0,0,0,34.64,21.92,207.77,207.77,0,0,0,42.15,15.13A209.49,209.49,0,0,0,208.12,387q8,0,17.93-.85a84.91,84.91,0,0,0,18.65-3.64,40.56,40.56,0,0,0,14.66-8q5.94-5.22,5.93-13.93,0-9.21-7.63-16.36t-23.14-13.8A336.43,336.43,0,0,0,195.4,317q-23.62-6.78-55.6-15.26Q68.57,283.32,34.29,250.25T0,169.46q0-29.81,12.23-53.06A115.55,115.55,0,0,1,45.65,77.27Q66.85,61.42,95.31,53A214.53,214.53,0,0,1,156,44.68a217,217,0,0,1,34.52,2.9,283.44,283.44,0,0,1,35.25,8A231.19,231.19,0,0,1,258.23,67.8a153.21,153.21,0,0,1,26.65,15.62l36.58-35.37h16.71l0,105.38H322.93a158.2,158.2,0,0,0-27.38-35.61,179.75,179.75,0,0,0-38.28-28.58,206.38,206.38,0,0,0-47.73-19.13,213.29,213.29,0,0,0-55.48-7q-5.58,0-14.29.36A81.46,81.46,0,0,0,122.69,66a39.1,39.1,0,0,0-14.41,6.91q-6.06,4.73-6.06,13.2,0,13.81,25.08,26.52T202,138.42q21.08,5.58,40.7,11.75a310.34,310.34,0,0,1,36.7,14.05,185.05,185.05,0,0,1,31,17.92,106.8,106.8,0,0,1,23.87,23.62,104.91,104.91,0,0,1,15.38,31q5.46,17.44,5.46,40.22a129.76,129.76,0,0,1-9.68,49.9,114.79,114.79,0,0,1-29,41.19q-19.26,17.69-47.84,28t-66.13,10.3a227.07,227.07,0,0,1-38.77-3.15,200.84,200.84,0,0,1-35.25-9.44,224.12,224.12,0,0,1-33.79-15.86,378.84,378.84,0,0,1-34.4-22.41L19.17,401.78H1Z"/><path class="cls-1" d="M447,476.34l0-331.41h-42.4V127.5l186.54,0v19.38q9.93-13.32,28-20.95t47.84-7.64q39,0,67.84,11.74t47.72,31.49a127.52,127.52,0,0,1,28.23,45.9,166.36,166.36,0,0,1,0,109.86,128.83,128.83,0,0,1-28.22,45.91q-18.9,19.88-47.72,31.51T667,406.3q-26.9,0-45.18-6.66t-30.65-16.83v93.51h42.4v17.44l-228.93,0V476.35ZM588.7,321a76.73,76.73,0,0,0,2.79,19.86A67.41,67.41,0,0,0,599.85,360a49.36,49.36,0,0,0,13.93,14.41,34.17,34.17,0,0,0,19.74,5.69A26.05,26.05,0,0,0,651,374q7.26-6.18,11.74-20.11t6.54-36.46q2.06-22.53,2-55,0-33.18-2.06-55.48t-6.91-35.85q-4.86-13.56-12.6-19.26t-19.38-5.69a37.67,37.67,0,0,0-16.84,3.76A33.27,33.27,0,0,0,600.43,162q-5.45,8.37-8.6,21.45t-3.14,32Z"/><path class="cls-1" d="M861,379.63h42.4l0-234.74H861V127.44l186.54,0,0,252.19h42.39V397l-228.93,0ZM972.89,103a130.37,130.37,0,0,1-27.13-2.78,71.61,71.61,0,0,1-23-9,49.29,49.29,0,0,1-16-15.87q-6.06-9.69-6.06-23.74t6.06-23.86a48.65,48.65,0,0,1,16-16,71.3,71.3,0,0,1,23-9,132.37,132.37,0,0,1,54,0,71.55,71.55,0,0,1,23,9,49.22,49.22,0,0,1,16,15.87q6,9.69,6,23.74t-6,23.86a48.87,48.87,0,0,1-16,16,71.33,71.33,0,0,1-23,9A128.53,128.53,0,0,1,972.89,103Z"/><path class="cls-1" d="M1150.47,144.85h-42.39V127.41h42.4q24.46,0,44-8.36a106.67,106.67,0,0,0,33.18-21.81,95.33,95.33,0,0,0,21-30.16,83.17,83.17,0,0,0,7.27-33.43h38.76v93.76h78v17.44h-78l0,149.23q0,25.92,2.79,42.27t8,25.56q5.2,9.21,12.36,12.47a37.65,37.65,0,0,0,15.86,3.27,38.39,38.39,0,0,0,16.48-3.75,36.85,36.85,0,0,0,14.05-12.12q6-8.36,9.68-21.8t3.63-33.07q0-4.61-.24-9.57c-.16-3.31-.41-6.74-.73-10.3h20.35q.73,12.12.73,22,0,30.3-8.35,49.31t-23.86,29.68q-15.51,10.65-37.67,14.54a291.94,291.94,0,0,1-49.78,3.88q-31,0-54.75-6.05t-40-19.26a81.57,81.57,0,0,1-24.47-34q-8.24-20.83-8.24-50.63Z"/><path class="cls-1" d="M1408.75,457.08a35.68,35.68,0,0,1,4.72-17.8,47,47,0,0,1,13-14.54,66.66,66.66,0,0,1,19.26-9.82,75.06,75.06,0,0,1,23.62-3.63,76.77,76.77,0,0,1,23,3.39,69.83,69.83,0,0,1,19.26,9.2,45.65,45.65,0,0,1,13.2,13.81,32.61,32.61,0,0,1,4.85,17.2,33.44,33.44,0,0,1-4.24,16.23,28.82,28.82,0,0,1-12,11.87,84.08,84.08,0,0,0,38.64-13q17.07-11,30.88-30.64L1442.15,144.81H1400V127.37l225.78,0v17.45h-32.47l64,148,12.71-28q6.66-14.65,13.08-29.07t12.23-27.62q5.82-13.2,10.29-23.62t7.27-17.2q2.78-6.78,3.27-8.24a7.72,7.72,0,0,0,.73-2.91c0-2.1-1.1-3.87-3.28-5.33a27.88,27.88,0,0,0-9.2-3.51,100.59,100.59,0,0,0-14.05-1.94q-8.13-.6-17.81-.6V127.34l112.89,0v17.45a167.51,167.51,0,0,0-18.29.85,62.09,62.09,0,0,0-13,2.66,23.67,23.67,0,0,0-8.48,4.73,19.58,19.58,0,0,0-4.84,7q-1,2.43-6.42,14.78t-14.17,31.5l-19.86,43.61q-11.14,24.47-23.73,51.12T1651,354.82q-13.08,27.14-25.68,51.85a340.09,340.09,0,0,1-24.1,40.94,130,130,0,0,1-28.82,30.17,119.76,119.76,0,0,1-37.91,18.65q-21.57,6.42-51.36,6.43a163.08,163.08,0,0,1-28.59-2.42,82.07,82.07,0,0,1-23.74-7.75,43.38,43.38,0,0,1-16.11-14.05Q1408.75,469.92,1408.75,457.08Z"/></g></g></svg>